<mxfile host="Electron" modified="2023-11-20T06:29:31.194Z" agent="Mozilla/5.0 (Windows NT 10.0; Win64; x64) AppleWebKit/537.36 (KHTML, like Gecko) draw.io/21.6.5 Chrome/114.0.5735.243 Electron/25.3.1 Safari/537.36" etag="IzcidyyG0z7wp7ZOe0YI" version="21.6.5" type="device">
  <diagram name="Page-1" id="2YBvvXClWsGukQMizWep">
    <mxGraphModel dx="1181" dy="690" grid="1" gridSize="10" guides="1" tooltips="1" connect="1" arrows="1" fold="1" page="1" pageScale="1" pageWidth="827" pageHeight="1169" math="0" shadow="0">
      <root>
        <mxCell id="0" />
        <mxCell id="1" parent="0" />
        <mxCell id="aM9ryv3xv72pqoxQDRHE-1" value=":比價頁面" style="shape=umlLifeline;perimeter=lifelinePerimeter;whiteSpace=wrap;html=1;container=0;dropTarget=0;collapsible=0;recursiveResize=0;outlineConnect=0;portConstraint=eastwest;newEdgeStyle={&quot;edgeStyle&quot;:&quot;elbowEdgeStyle&quot;,&quot;elbow&quot;:&quot;vertical&quot;,&quot;curved&quot;:0,&quot;rounded&quot;:0};" parent="1" vertex="1">
          <mxGeometry x="175" y="50" width="100" height="520" as="geometry" />
        </mxCell>
        <mxCell id="aM9ryv3xv72pqoxQDRHE-2" value="" style="html=1;points=[];perimeter=orthogonalPerimeter;outlineConnect=0;targetShapes=umlLifeline;portConstraint=eastwest;newEdgeStyle={&quot;edgeStyle&quot;:&quot;elbowEdgeStyle&quot;,&quot;elbow&quot;:&quot;vertical&quot;,&quot;curved&quot;:0,&quot;rounded&quot;:0};" parent="aM9ryv3xv72pqoxQDRHE-1" vertex="1">
          <mxGeometry x="45" y="70" width="10" height="400" as="geometry" />
        </mxCell>
        <mxCell id="FATohEn67VC4ZCUtdnCY-14" value="" style="shape=umlLifeline;perimeter=lifelinePerimeter;whiteSpace=wrap;html=1;container=1;dropTarget=0;collapsible=0;recursiveResize=0;outlineConnect=0;portConstraint=eastwest;newEdgeStyle={&quot;edgeStyle&quot;:&quot;elbowEdgeStyle&quot;,&quot;elbow&quot;:&quot;vertical&quot;,&quot;curved&quot;:0,&quot;rounded&quot;:0};participant=umlActor;size=60;" parent="1" vertex="1">
          <mxGeometry x="40" y="40" width="30" height="530" as="geometry" />
        </mxCell>
        <mxCell id="FATohEn67VC4ZCUtdnCY-15" value="點選評論" style="html=1;verticalAlign=bottom;endArrow=block;edgeStyle=elbowEdgeStyle;elbow=vertical;curved=0;rounded=0;" parent="1" source="FATohEn67VC4ZCUtdnCY-14" target="aM9ryv3xv72pqoxQDRHE-2" edge="1">
          <mxGeometry width="80" relative="1" as="geometry">
            <mxPoint x="54.810344827586164" y="129.9968965517242" as="sourcePoint" />
            <mxPoint x="220" y="129.9968965517242" as="targetPoint" />
            <Array as="points">
              <mxPoint x="140" y="120" />
            </Array>
          </mxGeometry>
        </mxCell>
        <mxCell id="FATohEn67VC4ZCUtdnCY-17" value="顯示發布的評論" style="html=1;verticalAlign=bottom;endArrow=open;dashed=1;endSize=8;edgeStyle=elbowEdgeStyle;elbow=horizontal;curved=0;rounded=0;" parent="1" source="aM9ryv3xv72pqoxQDRHE-2" target="FATohEn67VC4ZCUtdnCY-14" edge="1">
          <mxGeometry x="0.002" relative="1" as="geometry">
            <mxPoint x="240" y="300" as="targetPoint" />
            <Array as="points">
              <mxPoint x="140" y="450" />
            </Array>
            <mxPoint x="410" y="300" as="sourcePoint" />
            <mxPoint as="offset" />
          </mxGeometry>
        </mxCell>
        <mxCell id="CKTwQmuFr4gLuuUH_9-y-1" value=":評論控制器" style="shape=umlLifeline;perimeter=lifelinePerimeter;whiteSpace=wrap;html=1;container=0;dropTarget=0;collapsible=0;recursiveResize=0;outlineConnect=0;portConstraint=eastwest;newEdgeStyle={&quot;edgeStyle&quot;:&quot;elbowEdgeStyle&quot;,&quot;elbow&quot;:&quot;vertical&quot;,&quot;curved&quot;:0,&quot;rounded&quot;:0};" parent="1" vertex="1">
          <mxGeometry x="360" y="50" width="120" height="520" as="geometry" />
        </mxCell>
        <mxCell id="CKTwQmuFr4gLuuUH_9-y-2" value="" style="html=1;points=[];perimeter=orthogonalPerimeter;outlineConnect=0;targetShapes=umlLifeline;portConstraint=eastwest;newEdgeStyle={&quot;edgeStyle&quot;:&quot;elbowEdgeStyle&quot;,&quot;elbow&quot;:&quot;vertical&quot;,&quot;curved&quot;:0,&quot;rounded&quot;:0};" parent="CKTwQmuFr4gLuuUH_9-y-1" vertex="1">
          <mxGeometry x="55" y="100" width="10" height="380" as="geometry" />
        </mxCell>
        <mxCell id="t0yV11zwnApiravwVvpV-7" value="" style="html=1;points=[];perimeter=orthogonalPerimeter;outlineConnect=0;targetShapes=umlLifeline;portConstraint=eastwest;newEdgeStyle={&quot;edgeStyle&quot;:&quot;elbowEdgeStyle&quot;,&quot;elbow&quot;:&quot;vertical&quot;,&quot;curved&quot;:0,&quot;rounded&quot;:0};" parent="CKTwQmuFr4gLuuUH_9-y-1" vertex="1">
          <mxGeometry x="65" y="250" width="10" height="40" as="geometry" />
        </mxCell>
        <mxCell id="t0yV11zwnApiravwVvpV-8" value="驗證評論資料完整性" style="html=1;align=left;spacingLeft=2;endArrow=block;rounded=0;edgeStyle=orthogonalEdgeStyle;curved=0;rounded=0;" parent="CKTwQmuFr4gLuuUH_9-y-1" target="t0yV11zwnApiravwVvpV-7" edge="1">
          <mxGeometry relative="1" as="geometry">
            <mxPoint x="65" y="220" as="sourcePoint" />
            <Array as="points">
              <mxPoint x="100" y="220" />
              <mxPoint x="100" y="260" />
            </Array>
          </mxGeometry>
        </mxCell>
        <mxCell id="CKTwQmuFr4gLuuUH_9-y-3" value="傳送評論資料" style="html=1;verticalAlign=bottom;endArrow=block;edgeStyle=elbowEdgeStyle;elbow=vertical;curved=0;rounded=0;" parent="1" edge="1">
          <mxGeometry width="80" relative="1" as="geometry">
            <mxPoint x="229" y="260" as="sourcePoint" />
            <mxPoint x="414" y="260" as="targetPoint" />
            <Array as="points">
              <mxPoint x="319" y="260" />
            </Array>
          </mxGeometry>
        </mxCell>
        <mxCell id="CKTwQmuFr4gLuuUH_9-y-4" value="傳回評論資料" style="html=1;verticalAlign=bottom;endArrow=open;dashed=1;endSize=8;edgeStyle=elbowEdgeStyle;elbow=vertical;curved=0;rounded=0;" parent="1" source="CKTwQmuFr4gLuuUH_9-y-2" target="aM9ryv3xv72pqoxQDRHE-2" edge="1">
          <mxGeometry relative="1" as="geometry">
            <mxPoint x="230" y="230" as="targetPoint" />
            <Array as="points">
              <mxPoint x="330" y="440" />
            </Array>
            <mxPoint x="420" y="230" as="sourcePoint" />
          </mxGeometry>
        </mxCell>
        <mxCell id="t0yV11zwnApiravwVvpV-3" value=":評論資料庫" style="shape=umlLifeline;perimeter=lifelinePerimeter;whiteSpace=wrap;html=1;container=0;dropTarget=0;collapsible=0;recursiveResize=0;outlineConnect=0;portConstraint=eastwest;newEdgeStyle={&quot;edgeStyle&quot;:&quot;elbowEdgeStyle&quot;,&quot;elbow&quot;:&quot;vertical&quot;,&quot;curved&quot;:0,&quot;rounded&quot;:0};" parent="1" vertex="1">
          <mxGeometry x="560" y="50" width="120" height="520" as="geometry" />
        </mxCell>
        <mxCell id="t0yV11zwnApiravwVvpV-4" value="" style="html=1;points=[];perimeter=orthogonalPerimeter;outlineConnect=0;targetShapes=umlLifeline;portConstraint=eastwest;newEdgeStyle={&quot;edgeStyle&quot;:&quot;elbowEdgeStyle&quot;,&quot;elbow&quot;:&quot;vertical&quot;,&quot;curved&quot;:0,&quot;rounded&quot;:0};" parent="t0yV11zwnApiravwVvpV-3" vertex="1">
          <mxGeometry x="55" y="300" width="10" height="90" as="geometry" />
        </mxCell>
        <mxCell id="t0yV11zwnApiravwVvpV-5" value="儲存評論" style="html=1;verticalAlign=bottom;endArrow=block;edgeStyle=elbowEdgeStyle;elbow=vertical;curved=0;rounded=0;" parent="1" source="CKTwQmuFr4gLuuUH_9-y-2" target="t0yV11zwnApiravwVvpV-4" edge="1">
          <mxGeometry width="80" relative="1" as="geometry">
            <mxPoint x="430" y="170" as="sourcePoint" />
            <mxPoint x="615" y="170" as="targetPoint" />
            <Array as="points">
              <mxPoint x="490" y="360" />
            </Array>
          </mxGeometry>
        </mxCell>
        <mxCell id="t0yV11zwnApiravwVvpV-6" value="儲存成功" style="html=1;verticalAlign=bottom;endArrow=open;dashed=1;endSize=8;edgeStyle=elbowEdgeStyle;elbow=vertical;curved=0;rounded=0;" parent="1" source="t0yV11zwnApiravwVvpV-4" target="CKTwQmuFr4gLuuUH_9-y-2" edge="1">
          <mxGeometry relative="1" as="geometry">
            <mxPoint x="430" y="230" as="targetPoint" />
            <Array as="points">
              <mxPoint x="530" y="430" />
            </Array>
            <mxPoint x="615" y="230" as="sourcePoint" />
          </mxGeometry>
        </mxCell>
        <mxCell id="bteZ7s7mNMdXbWW5U8ZJ-1" value="顯示發布評論界面" style="html=1;verticalAlign=bottom;endArrow=open;dashed=1;endSize=8;edgeStyle=elbowEdgeStyle;elbow=vertical;curved=0;rounded=0;" edge="1" parent="1" source="aM9ryv3xv72pqoxQDRHE-2" target="FATohEn67VC4ZCUtdnCY-14">
          <mxGeometry x="0.002" relative="1" as="geometry">
            <mxPoint x="50" y="180" as="targetPoint" />
            <Array as="points">
              <mxPoint x="145" y="180" />
            </Array>
            <mxPoint x="215" y="180" as="sourcePoint" />
            <mxPoint as="offset" />
          </mxGeometry>
        </mxCell>
        <mxCell id="bteZ7s7mNMdXbWW5U8ZJ-2" value="撰寫評論並發布" style="html=1;verticalAlign=bottom;endArrow=block;edgeStyle=elbowEdgeStyle;elbow=vertical;curved=0;rounded=0;" edge="1" parent="1" source="FATohEn67VC4ZCUtdnCY-14" target="aM9ryv3xv72pqoxQDRHE-2">
          <mxGeometry width="80" relative="1" as="geometry">
            <mxPoint x="60" y="210" as="sourcePoint" />
            <mxPoint x="225" y="210" as="targetPoint" />
            <Array as="points">
              <mxPoint x="160" y="240" />
            </Array>
          </mxGeometry>
        </mxCell>
      </root>
    </mxGraphModel>
  </diagram>
</mxfile>
